# Snowboard Rush - a downhill snowboarding endless runner.
# Copyright (C) 2026 Camilo Cunha de Azevedo
# SPDX-License-Identifier: GPL-3.0-or-later

# coin.obj - Snowboard Rush (flat-shaded, generated)
mtllib coin.mtl
o coin
v 0.00000 0.00000 -0.06000
v 0.35355 0.35355 -0.06000
v 0.50000 0.00000 -0.06000
v 0.00000 0.00000 0.06000
v 0.50000 0.00000 0.06000
v 0.35355 0.35355 0.06000
v 0.00000 0.50000 -0.06000
v 0.00000 0.50000 0.06000
v -0.35355 0.35355 -0.06000
v -0.35355 0.35355 0.06000
v -0.50000 0.00000 -0.06000
v -0.50000 0.00000 0.06000
v -0.35355 -0.35355 -0.06000
v -0.35355 -0.35355 0.06000
v -0.00000 -0.50000 -0.06000
v -0.00000 -0.50000 0.06000
v 0.35355 -0.35355 -0.06000
v 0.35355 -0.35355 0.06000
vn 0.00000 0.00000 -1.00000
vn 0.00000 0.00000 1.00000
vn 0.92388 0.38268 0.00000
vn 0.92388 0.38268 -0.00000
vn 0.00000 0.00000 -1.00000
vn 0.00000 0.00000 1.00000
vn 0.38268 0.92388 0.00000
vn 0.38268 0.92388 -0.00000
vn 0.00000 0.00000 -1.00000
vn 0.00000 -0.00000 1.00000
vn -0.38268 0.92388 0.00000
vn -0.38268 0.92388 0.00000
vn 0.00000 0.00000 -1.00000
vn 0.00000 0.00000 1.00000
vn -0.92388 0.38268 0.00000
vn -0.92388 0.38268 0.00000
vn -0.00000 0.00000 -1.00000
vn 0.00000 0.00000 1.00000
vn -0.92388 -0.38268 0.00000
vn -0.92388 -0.38268 0.00000
vn 0.00000 0.00000 -1.00000
vn 0.00000 0.00000 1.00000
vn -0.38268 -0.92388 0.00000
vn -0.38268 -0.92388 0.00000
vn 0.00000 -0.00000 -1.00000
vn 0.00000 0.00000 1.00000
vn 0.38268 -0.92388 0.00000
vn 0.38268 -0.92388 0.00000
vn 0.00000 0.00000 -1.00000
vn -0.00000 0.00000 1.00000
vn 0.92388 -0.38268 0.00000
vn 0.92388 -0.38268 0.00000
usemtl coin
f 1//1 2//1 3//1
f 4//2 5//2 6//2
f 3//3 2//3 6//3
f 3//4 6//4 5//4
f 1//5 7//5 2//5
f 4//6 6//6 8//6
f 2//7 7//7 8//7
f 2//8 8//8 6//8
f 1//9 9//9 7//9
f 4//10 8//10 10//10
f 7//11 9//11 10//11
f 7//12 10//12 8//12
f 1//13 11//13 9//13
f 4//14 10//14 12//14
f 9//15 11//15 12//15
f 9//16 12//16 10//16
f 1//17 13//17 11//17
f 4//18 12//18 14//18
f 11//19 13//19 14//19
f 11//20 14//20 12//20
f 1//21 15//21 13//21
f 4//22 14//22 16//22
f 13//23 15//23 16//23
f 13//24 16//24 14//24
f 1//25 17//25 15//25
f 4//26 16//26 18//26
f 15//27 17//27 18//27
f 15//28 18//28 16//28
f 1//29 3//29 17//29
f 4//30 18//30 5//30
f 17//31 3//31 5//31
f 17//32 5//32 18//32
