# Snowboard Rush - a downhill snowboarding endless runner.
# Copyright (C) 2026 Camilo Cunha de Azevedo
# SPDX-License-Identifier: GPL-3.0-or-later

# marker.obj - Snowboard Rush (boundary flag pole)
mtllib marker.mtl
o marker
v 0.110000 0.000000 0.000000
v 0.077782 0.000000 0.077782
v 0.077782 0.600000 0.077782
v 0.110000 0.600000 0.000000
v 0.077782 0.000000 0.077782
v 0.000000 0.000000 0.110000
v 0.000000 0.600000 0.110000
v 0.077782 0.600000 0.077782
v 0.000000 0.000000 0.110000
v -0.077782 0.000000 0.077782
v -0.077782 0.600000 0.077782
v 0.000000 0.600000 0.110000
v -0.077782 0.000000 0.077782
v -0.110000 0.000000 0.000000
v -0.110000 0.600000 0.000000
v -0.077782 0.600000 0.077782
v -0.110000 0.000000 0.000000
v -0.077782 0.000000 -0.077782
v -0.077782 0.600000 -0.077782
v -0.110000 0.600000 0.000000
v -0.077782 0.000000 -0.077782
v -0.000000 0.000000 -0.110000
v -0.000000 0.600000 -0.110000
v -0.077782 0.600000 -0.077782
v -0.000000 0.000000 -0.110000
v 0.077782 0.000000 -0.077782
v 0.077782 0.600000 -0.077782
v -0.000000 0.600000 -0.110000
v 0.077782 0.000000 -0.077782
v 0.110000 0.000000 0.000000
v 0.110000 0.600000 0.000000
v 0.077782 0.600000 -0.077782
v 0.110000 0.600000 0.000000
v 0.077782 0.600000 0.077782
v 0.077782 1.200000 0.077782
v 0.110000 1.200000 0.000000
v 0.077782 0.600000 0.077782
v 0.000000 0.600000 0.110000
v 0.000000 1.200000 0.110000
v 0.077782 1.200000 0.077782
v 0.000000 0.600000 0.110000
v -0.077782 0.600000 0.077782
v -0.077782 1.200000 0.077782
v 0.000000 1.200000 0.110000
v -0.077782 0.600000 0.077782
v -0.110000 0.600000 0.000000
v -0.110000 1.200000 0.000000
v -0.077782 1.200000 0.077782
v -0.110000 0.600000 0.000000
v -0.077782 0.600000 -0.077782
v -0.077782 1.200000 -0.077782
v -0.110000 1.200000 0.000000
v -0.077782 0.600000 -0.077782
v -0.000000 0.600000 -0.110000
v -0.000000 1.200000 -0.110000
v -0.077782 1.200000 -0.077782
v -0.000000 0.600000 -0.110000
v 0.077782 0.600000 -0.077782
v 0.077782 1.200000 -0.077782
v -0.000000 1.200000 -0.110000
v 0.077782 0.600000 -0.077782
v 0.110000 0.600000 0.000000
v 0.110000 1.200000 0.000000
v 0.077782 1.200000 -0.077782
v 0.110000 1.200000 0.000000
v 0.077782 1.200000 0.077782
v 0.077782 1.800000 0.077782
v 0.110000 1.800000 0.000000
v 0.077782 1.200000 0.077782
v 0.000000 1.200000 0.110000
v 0.000000 1.800000 0.110000
v 0.077782 1.800000 0.077782
v 0.000000 1.200000 0.110000
v -0.077782 1.200000 0.077782
v -0.077782 1.800000 0.077782
v 0.000000 1.800000 0.110000
v -0.077782 1.200000 0.077782
v -0.110000 1.200000 0.000000
v -0.110000 1.800000 0.000000
v -0.077782 1.800000 0.077782
v -0.110000 1.200000 0.000000
v -0.077782 1.200000 -0.077782
v -0.077782 1.800000 -0.077782
v -0.110000 1.800000 0.000000
v -0.077782 1.200000 -0.077782
v -0.000000 1.200000 -0.110000
v -0.000000 1.800000 -0.110000
v -0.077782 1.800000 -0.077782
v -0.000000 1.200000 -0.110000
v 0.077782 1.200000 -0.077782
v 0.077782 1.800000 -0.077782
v -0.000000 1.800000 -0.110000
v 0.077782 1.200000 -0.077782
v 0.110000 1.200000 0.000000
v 0.110000 1.800000 0.000000
v 0.077782 1.800000 -0.077782
v 0.110000 1.800000 0.000000
v 0.077782 1.800000 0.077782
v 0.077782 2.400000 0.077782
v 0.110000 2.400000 0.000000
v 0.077782 1.800000 0.077782
v 0.000000 1.800000 0.110000
v 0.000000 2.400000 0.110000
v 0.077782 2.400000 0.077782
v 0.000000 1.800000 0.110000
v -0.077782 1.800000 0.077782
v -0.077782 2.400000 0.077782
v 0.000000 2.400000 0.110000
v -0.077782 1.800000 0.077782
v -0.110000 1.800000 0.000000
v -0.110000 2.400000 0.000000
v -0.077782 2.400000 0.077782
v -0.110000 1.800000 0.000000
v -0.077782 1.800000 -0.077782
v -0.077782 2.400000 -0.077782
v -0.110000 2.400000 0.000000
v -0.077782 1.800000 -0.077782
v -0.000000 1.800000 -0.110000
v -0.000000 2.400000 -0.110000
v -0.077782 2.400000 -0.077782
v -0.000000 1.800000 -0.110000
v 0.077782 1.800000 -0.077782
v 0.077782 2.400000 -0.077782
v -0.000000 2.400000 -0.110000
v 0.077782 1.800000 -0.077782
v 0.110000 1.800000 0.000000
v 0.110000 2.400000 0.000000
v 0.077782 2.400000 -0.077782
v 0.110000 0.000000 0.000000
v 0.077782 0.000000 0.077782
v 0.000000 0.000000 0.110000
v 0.110000 0.000000 0.000000
v 0.000000 0.000000 0.110000
v -0.077782 0.000000 0.077782
v 0.110000 0.000000 0.000000
v -0.077782 0.000000 0.077782
v -0.110000 0.000000 0.000000
v 0.110000 0.000000 0.000000
v -0.110000 0.000000 0.000000
v -0.077782 0.000000 -0.077782
v 0.110000 0.000000 0.000000
v -0.077782 0.000000 -0.077782
v -0.000000 0.000000 -0.110000
v 0.110000 0.000000 0.000000
v -0.000000 0.000000 -0.110000
v 0.077782 0.000000 -0.077782
v 0.110000 2.400000 0.000000
v 0.000000 2.400000 0.110000
v 0.077782 2.400000 0.077782
v 0.110000 2.400000 0.000000
v -0.077782 2.400000 0.077782
v 0.000000 2.400000 0.110000
v 0.110000 2.400000 0.000000
v -0.110000 2.400000 0.000000
v -0.077782 2.400000 0.077782
v 0.110000 2.400000 0.000000
v -0.077782 2.400000 -0.077782
v -0.110000 2.400000 0.000000
v 0.110000 2.400000 0.000000
v -0.000000 2.400000 -0.110000
v -0.077782 2.400000 -0.077782
v 0.110000 2.400000 0.000000
v 0.077782 2.400000 -0.077782
v -0.000000 2.400000 -0.110000
v 0.110000 2.400000 0.000000
v 0.110000 2.050000 0.000000
v 0.600000 2.225000 0.000000
v 0.600000 2.225000 0.000000
v 0.110000 2.050000 0.000000
v 0.110000 2.400000 0.000000
vn -0.923880 0.000000 -0.382683
vn -0.382683 0.000000 -0.923880
vn 0.382683 0.000000 -0.923880
vn 0.923880 0.000000 -0.382683
vn 0.923880 0.000000 0.382683
vn 0.382683 0.000000 0.923880
vn -0.382683 0.000000 0.923880
vn -0.923880 0.000000 0.382683
vn -0.923880 0.000000 -0.382683
vn -0.382683 0.000000 -0.923880
vn 0.382683 0.000000 -0.923880
vn 0.923880 0.000000 -0.382683
vn 0.923880 0.000000 0.382683
vn 0.382683 0.000000 0.923880
vn -0.382683 0.000000 0.923880
vn -0.923880 0.000000 0.382683
vn -0.923880 0.000000 -0.382683
vn -0.382683 0.000000 -0.923880
vn 0.382683 0.000000 -0.923880
vn 0.923880 0.000000 -0.382683
vn 0.923880 0.000000 0.382683
vn 0.382683 0.000000 0.923880
vn -0.382683 0.000000 0.923880
vn -0.923880 0.000000 0.382683
vn -0.923880 0.000000 -0.382683
vn -0.382683 0.000000 -0.923880
vn 0.382683 0.000000 -0.923880
vn 0.923880 0.000000 -0.382683
vn 0.923880 0.000000 0.382683
vn 0.382683 0.000000 0.923880
vn -0.382683 0.000000 0.923880
vn -0.923880 0.000000 0.382683
vn 0.000000 -1.000000 0.000000
vn 0.000000 -1.000000 0.000000
vn 0.000000 -1.000000 0.000000
vn -0.000000 -1.000000 0.000000
vn 0.000000 -1.000000 0.000000
vn 0.000000 -1.000000 0.000000
vn 0.000000 1.000000 0.000000
vn 0.000000 1.000000 0.000000
vn 0.000000 1.000000 0.000000
vn 0.000000 1.000000 0.000000
vn 0.000000 1.000000 0.000000
vn 0.000000 1.000000 0.000000
vn 0.000000 0.000000 1.000000
vn -0.000000 0.000000 -1.000000
usemtl orange
f 1//1 2//1 3//1
f 1//1 3//1 4//1
f 5//2 6//2 7//2
f 5//2 7//2 8//2
f 9//3 10//3 11//3
f 9//3 11//3 12//3
f 13//4 14//4 15//4
f 13//4 15//4 16//4
f 17//5 18//5 19//5
f 17//5 19//5 20//5
f 21//6 22//6 23//6
f 21//6 23//6 24//6
f 25//7 26//7 27//7
f 25//7 27//7 28//7
f 29//8 30//8 31//8
f 29//8 31//8 32//8
f 65//17 66//17 67//17
f 65//17 67//17 68//17
f 69//18 70//18 71//18
f 69//18 71//18 72//18
f 73//19 74//19 75//19
f 73//19 75//19 76//19
f 77//20 78//20 79//20
f 77//20 79//20 80//20
f 81//21 82//21 83//21
f 81//21 83//21 84//21
f 85//22 86//22 87//22
f 85//22 87//22 88//22
f 89//23 90//23 91//23
f 89//23 91//23 92//23
f 93//24 94//24 95//24
f 93//24 95//24 96//24
f 129//33 130//33 131//33
f 132//34 133//34 134//34
f 135//35 136//35 137//35
f 138//36 139//36 140//36
f 141//37 142//37 143//37
f 144//38 145//38 146//38
f 165//45 166//45 167//45
f 168//46 169//46 170//46
usemtl white
f 33//9 34//9 35//9
f 33//9 35//9 36//9
f 37//10 38//10 39//10
f 37//10 39//10 40//10
f 41//11 42//11 43//11
f 41//11 43//11 44//11
f 45//12 46//12 47//12
f 45//12 47//12 48//12
f 49//13 50//13 51//13
f 49//13 51//13 52//13
f 53//14 54//14 55//14
f 53//14 55//14 56//14
f 57//15 58//15 59//15
f 57//15 59//15 60//15
f 61//16 62//16 63//16
f 61//16 63//16 64//16
f 97//25 98//25 99//25
f 97//25 99//25 100//25
f 101//26 102//26 103//26
f 101//26 103//26 104//26
f 105//27 106//27 107//27
f 105//27 107//27 108//27
f 109//28 110//28 111//28
f 109//28 111//28 112//28
f 113//29 114//29 115//29
f 113//29 115//29 116//29
f 117//30 118//30 119//30
f 117//30 119//30 120//30
f 121//31 122//31 123//31
f 121//31 123//31 124//31
f 125//32 126//32 127//32
f 125//32 127//32 128//32
f 147//39 148//39 149//39
f 150//40 151//40 152//40
f 153//41 154//41 155//41
f 156//42 157//42 158//42
f 159//43 160//43 161//43
f 162//44 163//44 164//44
