# Snowboard Rush - a downhill snowboarding endless runner.
# Copyright (C) 2026 Camilo Cunha de Azevedo
# SPDX-License-Identifier: GPL-3.0-or-later

# pine_tree.obj - Snowboard Rush (flat-shaded, generated)
mtllib pine_tree.mtl
o pine_tree
v 0.00000 0.00000 0.00000
v 0.14000 0.00000 0.00000
v 0.07000 0.00000 0.12124
v 0.00000 0.60000 0.00000
v 0.07000 0.60000 0.12124
v 0.14000 0.60000 0.00000
v -0.07000 0.00000 0.12124
v -0.07000 0.60000 0.12124
v -0.14000 0.00000 0.00000
v -0.14000 0.60000 0.00000
v -0.07000 0.00000 -0.12124
v -0.07000 0.60000 -0.12124
v 0.07000 0.00000 -0.12124
v 0.07000 0.60000 -0.12124
v 0.00000 0.35000 0.00000
v 0.85000 0.35000 0.00000
v 0.52997 0.35000 0.66456
v 0.00000 1.45000 0.00000
v -0.18914 0.35000 0.82869
v -0.76582 0.35000 0.36880
v -0.76582 0.35000 -0.36880
v -0.18914 0.35000 -0.82869
v 0.52997 0.35000 -0.66456
v 0.00000 0.90000 0.00000
v 0.60000 0.90000 0.00000
v 0.37409 0.90000 0.46910
v 0.00000 1.90000 0.00000
v -0.13351 0.90000 0.58496
v -0.54058 0.90000 0.26033
v -0.54058 0.90000 -0.26033
v -0.13351 0.90000 -0.58496
v 0.37409 0.90000 -0.46910
v 0.00000 1.40000 0.00000
v 0.35000 1.40000 0.00000
v 0.21822 1.40000 0.27364
v 0.00000 2.30000 0.00000
v -0.07788 1.40000 0.34122
v -0.31534 1.40000 0.15186
v -0.31534 1.40000 -0.15186
v -0.07788 1.40000 -0.34122
v 0.21822 1.40000 -0.27364
vn 0.00000 -1.00000 0.00000
vn 0.00000 1.00000 0.00000
vn 0.86603 -0.00000 0.50000
vn 0.86603 0.00000 0.50000
vn 0.00000 -1.00000 0.00000
vn 0.00000 1.00000 -0.00000
vn 0.00000 -0.00000 1.00000
vn 0.00000 0.00000 1.00000
vn 0.00000 -1.00000 0.00000
vn 0.00000 1.00000 0.00000
vn -0.86603 0.00000 0.50000
vn -0.86603 0.00000 0.50000
vn -0.00000 -1.00000 0.00000
vn 0.00000 1.00000 0.00000
vn -0.86603 0.00000 -0.50000
vn -0.86603 0.00000 -0.50000
vn 0.00000 -1.00000 -0.00000
vn 0.00000 1.00000 0.00000
vn -0.00000 0.00000 -1.00000
vn -0.00000 0.00000 -1.00000
vn 0.00000 -1.00000 0.00000
vn -0.00000 1.00000 0.00000
vn 0.86603 0.00000 -0.50000
vn 0.86603 0.00000 -0.50000
vn 0.00000 -1.00000 0.00000
vn -0.73942 -0.57137 -0.35609
vn 0.00000 -1.00000 0.00000
vn -0.18262 -0.57137 -0.80012
vn 0.00000 -1.00000 0.00000
vn 0.51169 -0.57137 -0.64164
vn -0.00000 -1.00000 0.00000
vn 0.82069 -0.57137 -0.00000
vn 0.00000 -1.00000 0.00000
vn 0.51169 -0.57137 0.64164
vn 0.00000 -1.00000 -0.00000
vn -0.18262 -0.57137 0.80012
vn 0.00000 -1.00000 0.00000
vn -0.73942 -0.57137 0.35609
vn 0.00000 -1.00000 0.00000
vn 0.79257 0.47554 0.38168
vn 0.00000 -1.00000 0.00000
vn 0.19575 0.47554 0.85764
vn 0.00000 -1.00000 0.00000
vn -0.54848 0.47554 0.68777
vn -0.00000 -1.00000 0.00000
vn -0.87969 0.47554 0.00000
vn 0.00000 -1.00000 0.00000
vn -0.54848 0.47554 -0.68777
vn 0.00000 -1.00000 -0.00000
vn 0.19575 0.47554 -0.85764
vn 0.00000 -1.00000 0.00000
vn 0.79257 0.47554 -0.38168
vn 0.00000 -1.00000 0.00000
vn 0.85029 0.33067 0.40948
vn 0.00000 -1.00000 0.00000
vn 0.21000 0.33067 0.92009
vn 0.00000 -1.00000 0.00000
vn -0.58842 0.33067 0.73785
vn -0.00000 -1.00000 0.00000
vn -0.94375 0.33067 0.00000
vn 0.00000 -1.00000 0.00000
vn -0.58842 0.33067 -0.73785
vn 0.00000 -1.00000 -0.00000
vn 0.21000 0.33067 -0.92009
vn 0.00000 -1.00000 0.00000
vn 0.85029 0.33067 -0.40948
usemtl trunk
f 1//1 2//1 3//1
f 4//2 5//2 6//2
f 2//3 6//3 5//3
f 2//4 5//4 3//4
f 1//5 3//5 7//5
f 4//6 8//6 5//6
f 3//7 5//7 8//7
f 3//8 8//8 7//8
f 1//9 7//9 9//9
f 4//10 10//10 8//10
f 7//11 8//11 10//11
f 7//12 10//12 9//12
f 1//13 9//13 11//13
f 4//14 12//14 10//14
f 9//15 10//15 12//15
f 9//16 12//16 11//16
f 1//17 11//17 13//17
f 4//18 14//18 12//18
f 11//19 12//19 14//19
f 11//20 14//20 13//20
f 1//21 13//21 2//21
f 4//22 6//22 14//22
f 13//23 14//23 6//23
f 13//24 6//24 2//24
usemtl foliage
f 15//25 16//25 17//25
f 18//26 16//26 17//26
f 15//27 17//27 19//27
f 18//28 17//28 19//28
f 15//29 19//29 20//29
f 18//30 19//30 20//30
f 15//31 20//31 21//31
f 18//32 20//32 21//32
f 15//33 21//33 22//33
f 18//34 21//34 22//34
f 15//35 22//35 23//35
f 18//36 22//36 23//36
f 15//37 23//37 16//37
f 18//38 23//38 16//38
f 24//39 25//39 26//39
f 27//40 26//40 25//40
f 24//41 26//41 28//41
f 27//42 28//42 26//42
f 24//43 28//43 29//43
f 27//44 29//44 28//44
f 24//45 29//45 30//45
f 27//46 30//46 29//46
f 24//47 30//47 31//47
f 27//48 31//48 30//48
f 24//49 31//49 32//49
f 27//50 32//50 31//50
f 24//51 32//51 25//51
f 27//52 25//52 32//52
f 33//53 34//53 35//53
f 36//54 35//54 34//54
f 33//55 35//55 37//55
f 36//56 37//56 35//56
f 33//57 37//57 38//57
f 36//58 38//58 37//58
f 33//59 38//59 39//59
f 36//60 39//60 38//60
f 33//61 39//61 40//61
f 36//62 40//62 39//62
f 33//63 40//63 41//63
f 36//64 41//64 40//64
f 33//65 41//65 34//65
f 36//66 34//66 41//66
