# Snowboard Rush - a downhill snowboarding endless runner.
# Copyright (C) 2026 Camilo Cunha de Azevedo
# SPDX-License-Identifier: GPL-3.0-or-later

# rock.obj - Snowboard Rush (flat-shaded, generated)
mtllib rock.mtl
o rock
v 0.00000 0.76006 0.00000
v 0.23639 0.76040 0.40944
v 0.44369 0.73946 0.00000
v 0.00000 0.91409 0.00000
v -0.16269 0.65427 0.28179
v 0.00000 0.89602 0.00000
v -0.31148 0.64427 0.00000
v 0.00000 0.78613 0.00000
v -0.24138 0.76759 -0.41808
v 0.00000 0.83805 0.00000
v 0.19864 0.70604 -0.34405
v 0.00000 0.82813 0.00000
v 0.21632 0.42000 0.37467
v 0.66068 0.42000 0.00000
v -0.28281 0.42000 0.48984
v -0.64846 0.42000 0.00000
v -0.25031 0.42000 -0.43356
v 0.35779 0.42000 -0.61971
v 0.15598 0.19539 0.27016
v 0.49669 0.06238 0.00000
v -0.15543 0.19618 0.26922
v -0.42032 0.11737 0.00000
v -0.25235 0.05662 -0.43708
v 0.19317 0.14184 -0.33458
v 0.00000 0.01778 0.00000
v 0.00000 0.06217 0.00000
v -0.00000 0.10269 0.00000
v -0.00000 0.06107 0.00000
v -0.00000 0.01438 -0.00000
v 0.00000 0.00186 -0.00000
vn 0.04637 0.99854 -0.02760
vn 0.86603 0.00000 -0.50000
vn -0.36913 0.77970 0.50577
vn -0.86603 -0.00000 -0.50000
vn -0.60136 0.74405 0.29112
vn -0.00000 -0.00000 -1.00000
vn -0.40652 0.89256 0.19511
vn -0.86603 0.00000 0.50000
vn 0.17679 0.94874 -0.26197
vn 0.86603 0.00000 0.50000
vn 0.19078 0.95464 -0.22863
vn 0.00000 0.00000 1.00000
vn 0.59048 0.40108 0.70033
vn 0.88578 -0.09857 0.45352
vn 0.22342 -0.11208 0.96826
vn -0.37817 0.71552 0.58738
vn -0.58327 0.68572 0.43540
vn -0.53582 0.80511 0.25434
vn -0.49380 0.74197 -0.45347
vn -0.98723 0.03232 -0.15600
vn -0.29235 0.05002 -0.95500
vn 0.21114 0.73665 -0.64247
vn 0.66017 0.67828 -0.32267
vn 0.69554 0.47244 -0.54131
vn 0.54065 -0.24792 0.80389
vn 0.56982 -0.46751 0.67582
vn -0.00381 -0.42100 0.90705
vn 0.17279 -0.63980 0.74886
vn -0.34725 -0.75108 0.56151
vn -0.68591 -0.51708 0.51202
vn -0.77934 -0.58751 -0.21785
vn -0.73650 0.01067 -0.67635
vn 0.22272 0.00820 -0.97485
vn -0.22780 -0.62798 -0.74414
vn 0.37895 -0.76222 -0.52480
vn 0.83069 -0.38093 -0.40601
vn 0.00000 -0.00000 -1.00000
vn 0.07658 -0.85288 0.51647
vn -0.86603 -0.00000 0.50000
vn -0.00338 -0.94526 0.32630
vn 0.86603 -0.00000 0.50000
vn -0.12236 -0.91358 0.38781
vn -0.00000 -0.00000 1.00000
vn -0.23777 -0.97035 0.04349
vn -0.86603 -0.00000 0.50000
vn 0.23790 -0.93728 -0.25477
vn 0.86603 -0.00000 0.50000
vn 0.00041 -0.97286 -0.23141
usemtl rock
f 1//1 2//1 3//1
f 1//2 4//2 2//2
f 4//3 5//3 2//3
f 4//4 6//4 5//4
f 6//5 7//5 5//5
f 6//6 8//6 7//6
f 8//7 9//7 7//7
f 8//8 10//8 9//8
f 10//9 11//9 9//9
f 10//10 12//10 11//10
f 12//11 3//11 11//11
f 12//12 1//12 3//12
f 3//13 13//13 14//13
f 3//14 2//14 13//14
f 2//15 15//15 13//15
f 2//16 5//16 15//16
f 5//17 16//17 15//17
f 5//18 7//18 16//18
f 7//19 17//19 16//19
f 7//20 9//20 17//20
f 9//21 18//21 17//21
f 9//22 11//22 18//22
f 11//23 14//23 18//23
f 11//24 3//24 14//24
f 14//25 19//25 20//25
f 14//26 13//26 19//26
f 13//27 21//27 19//27
f 13//28 15//28 21//28
f 15//29 22//29 21//29
f 15//30 16//30 22//30
f 16//31 23//31 22//31
f 16//32 17//32 23//32
f 17//33 24//33 23//33
f 17//34 18//34 24//34
f 18//35 20//35 24//35
f 18//36 14//36 20//36
f 20//37 25//37 26//37
f 20//38 19//38 25//38
f 19//39 27//39 25//39
f 19//40 21//40 27//40
f 21//41 28//41 27//41
f 21//42 22//42 28//42
f 22//43 29//43 28//43
f 22//44 23//44 29//44
f 23//45 30//45 29//45
f 23//46 24//46 30//46
f 24//47 26//47 30//47
f 24//48 20//48 26//48
