# snowboard.obj - Snowboard Rush (flat-shaded, generated)
mtllib snowboard.mtl
o snowboard
v 0.27500 -0.06000 -1.10000
v 0.27500 0.06000 -1.10000
v 0.27500 0.06000 1.10000
v 0.27500 -0.06000 1.10000
v -0.27500 -0.06000 -1.10000
v -0.27500 -0.06000 1.10000
v -0.27500 0.06000 1.10000
v -0.27500 0.06000 -1.10000
vn 1.00000 0.00000 0.00000
vn 1.00000 0.00000 0.00000
vn -1.00000 0.00000 0.00000
vn -1.00000 0.00000 0.00000
vn 0.00000 1.00000 0.00000
vn 0.00000 1.00000 0.00000
vn 0.00000 -1.00000 0.00000
vn 0.00000 -1.00000 0.00000
vn 0.00000 0.00000 1.00000
vn 0.00000 0.00000 1.00000
vn 0.00000 0.00000 -1.00000
vn 0.00000 0.00000 -1.00000
usemtl board
f 1//1 2//1 3//1
f 1//2 3//2 4//2
f 5//3 6//3 7//3
f 5//4 7//4 8//4
f 8//5 7//5 3//5
f 8//6 3//6 2//6
f 5//7 1//7 4//7
f 5//8 4//8 6//8
f 6//9 4//9 3//9
f 6//10 3//10 7//10
f 5//11 8//11 2//11
f 5//12 2//12 1//12
