# Snowboard Rush - a downhill snowboarding endless runner.
# Copyright (C) 2026 Camilo Cunha de Azevedo
# SPDX-License-Identifier: GPL-3.0-or-later

# snowboarder.obj - Snowboard Rush (flat-shaded, generated)
mtllib snowboarder.mtl
o snowboarder
v -0.08000 0.00000 -0.05000
v -0.08000 0.24000 0.29000
v -0.08000 0.24000 -0.05000
v -0.08000 0.00000 0.29000
v -0.24000 0.00000 -0.05000
v -0.24000 0.00000 0.29000
v -0.24000 0.24000 0.29000
v -0.24000 0.24000 -0.05000
v 0.24000 0.00000 -0.05000
v 0.24000 0.24000 -0.05000
v 0.24000 0.24000 0.29000
v 0.24000 0.00000 0.29000
v 0.08000 0.00000 -0.05000
v 0.08000 0.00000 0.29000
v 0.08000 0.24000 0.29000
v 0.08000 0.24000 -0.05000
v -0.08000 0.24000 -0.01000
v -0.08000 0.56000 0.21000
v -0.08000 0.56000 -0.01000
v -0.08000 0.24000 0.21000
v -0.24000 0.24000 -0.01000
v -0.24000 0.24000 0.21000
v -0.24000 0.56000 0.21000
v -0.24000 0.56000 -0.01000
v 0.24000 0.24000 -0.01000
v 0.24000 0.56000 -0.01000
v 0.24000 0.56000 0.21000
v 0.24000 0.24000 0.21000
v 0.08000 0.24000 -0.01000
v 0.08000 0.56000 0.21000
v 0.08000 0.24000 0.21000
v 0.08000 0.56000 -0.01000
v 0.23000 0.55000 -0.12000
v 0.23000 0.77000 -0.12000
v 0.23000 0.77000 0.22000
v 0.23000 0.55000 0.22000
v -0.23000 0.55000 -0.12000
v -0.23000 0.55000 0.22000
v -0.23000 0.77000 0.22000
v -0.23000 0.77000 -0.12000
v 0.26000 0.74000 -0.30000
v 0.26000 1.22000 0.10000
v 0.26000 1.22000 -0.30000
v 0.26000 0.74000 0.10000
v -0.26000 0.74000 -0.30000
v -0.26000 0.74000 0.10000
v -0.26000 1.22000 0.10000
v -0.26000 1.22000 -0.30000
v -0.37000 0.91000 -0.06000
v -0.37000 1.05000 0.10000
v -0.37000 1.05000 -0.06000
v -0.37000 0.91000 0.10000
v -0.67000 0.91000 -0.06000
v -0.67000 0.91000 0.10000
v -0.67000 1.05000 0.10000
v -0.67000 1.05000 -0.06000
v 0.67000 0.91000 -0.06000
v 0.67000 1.05000 -0.06000
v 0.67000 1.05000 0.10000
v 0.67000 0.91000 0.10000
v 0.37000 0.91000 -0.06000
v 0.37000 0.91000 0.10000
v 0.37000 1.05000 0.10000
v 0.37000 1.05000 -0.06000
v 0.15000 1.29000 -0.31000
v 0.15000 1.59000 -0.31000
v 0.15000 1.59000 -0.01000
v 0.15000 1.29000 -0.01000
v -0.15000 1.29000 -0.31000
v -0.15000 1.29000 -0.01000
v -0.15000 1.59000 -0.01000
v -0.15000 1.59000 -0.31000
v 0.17000 1.54000 -0.33000
v 0.17000 1.70000 -0.33000
v 0.17000 1.70000 0.01000
v 0.17000 1.54000 0.01000
v -0.17000 1.54000 -0.33000
v -0.17000 1.54000 0.01000
v -0.17000 1.70000 0.01000
v -0.17000 1.70000 -0.33000
vn -1.00000 0.00000 0.00000
vn -1.00000 0.00000 0.00000
vn -1.00000 0.00000 0.00000
vn -1.00000 0.00000 0.00000
vn 0.00000 1.00000 0.00000
vn 0.00000 1.00000 0.00000
vn 0.00000 -1.00000 0.00000
vn 0.00000 -1.00000 0.00000
vn 0.00000 0.00000 1.00000
vn 0.00000 0.00000 1.00000
vn 0.00000 0.00000 -1.00000
vn 0.00000 0.00000 -1.00000
vn 1.00000 0.00000 0.00000
vn 1.00000 0.00000 0.00000
vn -1.00000 0.00000 0.00000
vn -1.00000 0.00000 0.00000
vn 0.00000 1.00000 0.00000
vn 0.00000 1.00000 0.00000
vn 0.00000 -1.00000 0.00000
vn 0.00000 -1.00000 0.00000
vn 0.00000 0.00000 1.00000
vn 0.00000 0.00000 1.00000
vn 0.00000 0.00000 -1.00000
vn 0.00000 0.00000 -1.00000
vn -1.00000 0.00000 0.00000
vn -1.00000 0.00000 0.00000
vn -1.00000 0.00000 0.00000
vn -1.00000 0.00000 0.00000
vn 0.00000 -1.00000 0.00000
vn 0.00000 -1.00000 0.00000
vn 0.00000 -1.00000 0.00000
vn 0.00000 -1.00000 0.00000
vn 0.00000 0.00000 1.00000
vn 0.00000 0.00000 1.00000
vn 0.00000 0.00000 -1.00000
vn 0.00000 0.00000 -1.00000
vn 1.00000 0.00000 0.00000
vn 1.00000 0.00000 0.00000
vn 1.00000 0.00000 0.00000
vn 1.00000 0.00000 0.00000
vn 0.00000 -1.00000 0.00000
vn 0.00000 -1.00000 0.00000
vn 0.00000 -1.00000 0.00000
vn 0.00000 -1.00000 0.00000
vn 0.00000 0.00000 1.00000
vn 0.00000 0.00000 1.00000
vn 0.00000 0.00000 -1.00000
vn 0.00000 0.00000 -1.00000
vn 1.00000 0.00000 0.00000
vn 1.00000 0.00000 0.00000
vn -1.00000 0.00000 0.00000
vn -1.00000 0.00000 0.00000
vn 0.00000 1.00000 0.00000
vn 0.00000 1.00000 0.00000
vn 0.00000 -1.00000 0.00000
vn 0.00000 -1.00000 0.00000
vn 0.00000 0.00000 1.00000
vn 0.00000 0.00000 1.00000
vn 0.00000 0.00000 -1.00000
vn 0.00000 0.00000 -1.00000
vn -1.00000 0.00000 0.00000
vn -1.00000 0.00000 0.00000
vn -1.00000 0.00000 0.00000
vn -1.00000 0.00000 0.00000
vn 0.00000 1.00000 0.00000
vn 0.00000 1.00000 0.00000
vn 0.00000 -1.00000 0.00000
vn 0.00000 -1.00000 0.00000
vn 0.00000 0.00000 1.00000
vn 0.00000 0.00000 1.00000
vn 0.00000 0.00000 -1.00000
vn 0.00000 0.00000 -1.00000
vn -1.00000 0.00000 0.00000
vn -1.00000 0.00000 0.00000
vn -1.00000 0.00000 0.00000
vn -1.00000 0.00000 0.00000
vn 0.00000 1.00000 0.00000
vn 0.00000 1.00000 0.00000
vn 0.00000 -1.00000 0.00000
vn 0.00000 -1.00000 0.00000
vn 0.00000 0.00000 1.00000
vn 0.00000 0.00000 1.00000
vn 0.00000 0.00000 -1.00000
vn 0.00000 0.00000 -1.00000
vn 1.00000 0.00000 0.00000
vn 1.00000 0.00000 0.00000
vn -1.00000 0.00000 0.00000
vn -1.00000 0.00000 0.00000
vn 0.00000 1.00000 0.00000
vn 0.00000 1.00000 0.00000
vn 0.00000 -1.00000 0.00000
vn 0.00000 -1.00000 0.00000
vn 0.00000 0.00000 1.00000
vn 0.00000 0.00000 1.00000
vn 0.00000 0.00000 -1.00000
vn 0.00000 0.00000 -1.00000
vn 1.00000 0.00000 0.00000
vn 1.00000 0.00000 0.00000
vn -1.00000 0.00000 0.00000
vn -1.00000 0.00000 0.00000
vn 0.00000 1.00000 0.00000
vn 0.00000 1.00000 0.00000
vn 0.00000 -1.00000 0.00000
vn 0.00000 -1.00000 0.00000
vn 0.00000 0.00000 1.00000
vn 0.00000 0.00000 1.00000
vn 0.00000 0.00000 -1.00000
vn 0.00000 0.00000 -1.00000
vn 1.00000 0.00000 0.00000
vn 1.00000 0.00000 0.00000
vn -1.00000 0.00000 0.00000
vn -1.00000 0.00000 0.00000
vn 0.00000 1.00000 0.00000
vn 0.00000 1.00000 0.00000
vn 0.00000 -1.00000 0.00000
vn 0.00000 -1.00000 0.00000
vn 0.00000 0.00000 1.00000
vn 0.00000 0.00000 1.00000
vn 0.00000 0.00000 -1.00000
vn 0.00000 0.00000 -1.00000
usemtl boots
f 1//1 2//1 3//1
f 1//2 4//2 2//2
f 5//3 6//3 7//3
f 5//4 7//4 8//4
f 8//5 7//5 2//5
f 8//6 2//6 3//6
f 5//7 1//7 4//7
f 5//8 4//8 6//8
f 6//9 4//9 2//9
f 6//10 2//10 7//10
f 5//11 8//11 3//11
f 5//12 3//12 1//12
f 9//13 10//13 11//13
f 9//14 11//14 12//14
f 13//15 14//15 15//15
f 13//16 15//16 16//16
f 16//17 15//17 11//17
f 16//18 11//18 10//18
f 13//19 9//19 12//19
f 13//20 12//20 14//20
f 14//21 12//21 11//21
f 14//22 11//22 15//22
f 13//23 16//23 10//23
f 13//24 10//24 9//24
usemtl pants
f 17//25 18//25 19//25
f 17//26 20//26 18//26
f 21//27 22//27 23//27
f 21//28 23//28 24//28
f 24//29 18//29 23//29
f 24//30 19//30 18//30
f 21//31 17//31 20//31
f 21//32 20//32 22//32
f 22//33 20//33 18//33
f 22//34 18//34 23//34
f 21//35 24//35 19//35
f 21//36 19//36 17//36
f 25//37 26//37 27//37
f 25//38 27//38 28//38
f 29//39 30//39 31//39
f 29//40 32//40 30//40
f 32//41 27//41 30//41
f 32//42 26//42 27//42
f 29//43 25//43 28//43
f 29//44 28//44 31//44
f 31//45 28//45 27//45
f 31//46 27//46 30//46
f 29//47 32//47 26//47
f 29//48 26//48 25//48
f 33//49 34//49 35//49
f 33//50 35//50 36//50
f 37//51 38//51 39//51
f 37//52 39//52 40//52
f 40//53 39//53 35//53
f 40//54 35//54 34//54
f 37//55 33//55 36//55
f 37//56 36//56 38//56
f 38//57 36//57 35//57
f 38//58 35//58 39//58
f 37//59 40//59 34//59
f 37//60 34//60 33//60
usemtl jacket
f 41//61 42//61 43//61
f 41//62 44//62 42//62
f 45//63 46//63 47//63
f 45//64 47//64 48//64
f 48//65 47//65 42//65
f 48//66 42//66 43//66
f 45//67 41//67 44//67
f 45//68 44//68 46//68
f 46//69 44//69 42//69
f 46//70 42//70 47//70
f 45//71 48//71 43//71
f 45//72 43//72 41//72
f 49//73 50//73 51//73
f 49//74 52//74 50//74
f 53//75 54//75 55//75
f 53//76 55//76 56//76
f 56//77 55//77 50//77
f 56//78 50//78 51//78
f 53//79 49//79 52//79
f 53//80 52//80 54//80
f 54//81 52//81 50//81
f 54//82 50//82 55//82
f 53//83 56//83 51//83
f 53//84 51//84 49//84
f 57//85 58//85 59//85
f 57//86 59//86 60//86
f 61//87 62//87 63//87
f 61//88 63//88 64//88
f 64//89 63//89 59//89
f 64//90 59//90 58//90
f 61//91 57//91 60//91
f 61//92 60//92 62//92
f 62//93 60//93 59//93
f 62//94 59//94 63//94
f 61//95 64//95 58//95
f 61//96 58//96 57//96
usemtl skin
f 65//97 66//97 67//97
f 65//98 67//98 68//98
f 69//99 70//99 71//99
f 69//100 71//100 72//100
f 72//101 71//101 67//101
f 72//102 67//102 66//102
f 69//103 65//103 68//103
f 69//104 68//104 70//104
f 70//105 68//105 67//105
f 70//106 67//106 71//106
f 69//107 72//107 66//107
f 69//108 66//108 65//108
usemtl helmet
f 73//109 74//109 75//109
f 73//110 75//110 76//110
f 77//111 78//111 79//111
f 77//112 79//112 80//112
f 80//113 79//113 75//113
f 80//114 75//114 74//114
f 77//115 73//115 76//115
f 77//116 76//116 78//116
f 78//117 76//117 75//117
f 78//118 75//118 79//118
f 77//119 80//119 74//119
f 77//120 74//120 73//120
